<svg xmlns="http://www.w3.org/2000/svg" xmlns:xlink="http://www.w3.org/1999/xlink" width="197" height="168" viewBox="0 0 197 168"><defs><clipPath id="a"><rect width="197" height="168" fill="none"/></clipPath></defs><g transform="translate(-126 -1006)"><g transform="translate(126 1006)" clip-path="url(#a)"><g transform="translate(-353 -339)"><circle cx="2.5" cy="2.5" r="2.5" transform="translate(353 339)" fill="#5e6c88"/></g><g transform="translate(-342 -339)"><circle cx="2.5" cy="2.5" r="2.5" transform="translate(353 339)" fill="#5e6c88"/></g><g transform="translate(-331 -339)"><circle cx="2.5" cy="2.5" r="2.5" transform="translate(353 339)" fill="#5e6c88"/></g><g transform="translate(-320 -339)"><circle cx="2.5" cy="2.5" r="2.5" transform="translate(353 339)" fill="#5e6c88"/></g><g transform="translate(-309 -339)"><circle cx="2.5" cy="2.5" r="2.5" transform="translate(353 339)" fill="#5e6c88"/></g><g transform="translate(-298 -339)"><circle cx="2.5" cy="2.5" r="2.5" transform="translate(353 339)" fill="#5e6c88"/></g><g transform="translate(-287 -339)"><circle cx="2.5" cy="2.5" r="2.5" transform="translate(353 339)" fill="#5e6c88"/></g><g transform="translate(-276 -339)"><circle cx="2.5" cy="2.5" r="2.5" transform="translate(353 339)" fill="#5e6c88"/></g><g transform="translate(-265 -339)"><circle cx="2.5" cy="2.5" r="2.5" transform="translate(353 339)" fill="#5e6c88"/></g><g transform="translate(-254 -339)"><circle cx="2.5" cy="2.5" r="2.5" transform="translate(353 339)" fill="#5e6c88"/></g><g transform="translate(-243 -339)"><circle cx="2.5" cy="2.5" r="2.5" transform="translate(353 339)" fill="#5e6c88"/></g><g transform="translate(-232 -339)"><circle cx="2.5" cy="2.5" r="2.5" transform="translate(353 339)" fill="#5e6c88"/></g><g transform="translate(-221 -339)"><circle cx="2.5" cy="2.5" r="2.5" transform="translate(353 339)" fill="#5e6c88"/></g><g transform="translate(-210 -339)"><circle cx="2.5" cy="2.5" r="2.5" transform="translate(353 339)" fill="#5e6c88"/></g><g transform="translate(-199 -339)"><circle cx="2.5" cy="2.5" r="2.5" transform="translate(353 339)" fill="#5e6c88"/></g><g transform="translate(-188 -339)"><circle cx="2.5" cy="2.5" r="2.5" transform="translate(353 339)" fill="#5e6c88"/></g><g transform="translate(-177 -339)"><circle cx="2.5" cy="2.5" r="2.5" transform="translate(353 339)" fill="#5e6c88"/></g><g transform="translate(-166 -339)"><circle cx="2.5" cy="2.5" r="2.5" transform="translate(353 339)" fill="#5e6c88"/></g><g transform="translate(-353 -325)"><circle cx="2.5" cy="2.5" r="2.5" transform="translate(353 339)" fill="#5e6c88"/></g><g transform="translate(-342 -325)"><circle cx="2.5" cy="2.5" r="2.5" transform="translate(353 339)" fill="#5e6c88"/></g><g transform="translate(-331 -325)"><circle cx="2.5" cy="2.5" r="2.5" transform="translate(353 339)" fill="#5e6c88"/></g><g transform="translate(-320 -325)"><circle cx="2.5" cy="2.5" r="2.5" transform="translate(353 339)" fill="#5e6c88"/></g><g transform="translate(-309 -325)"><circle cx="2.5" cy="2.5" r="2.5" transform="translate(353 339)" fill="#5e6c88"/></g><g transform="translate(-298 -325)"><circle cx="2.5" cy="2.5" r="2.5" transform="translate(353 339)" fill="#5e6c88"/></g><g transform="translate(-287 -325)"><circle cx="2.5" cy="2.5" r="2.5" transform="translate(353 339)" fill="#5e6c88"/></g><g transform="translate(-276 -325)"><circle cx="2.5" cy="2.5" r="2.5" transform="translate(353 339)" fill="#5e6c88"/></g><g transform="translate(-265 -325)"><circle cx="2.5" cy="2.5" r="2.5" transform="translate(353 339)" fill="#5e6c88"/></g><g transform="translate(-254 -325)"><circle cx="2.5" cy="2.5" r="2.5" transform="translate(353 339)" fill="#5e6c88"/></g><g transform="translate(-243 -325)"><circle cx="2.5" cy="2.5" r="2.5" transform="translate(353 339)" fill="#5e6c88"/></g><g transform="translate(-232 -325)"><circle cx="2.5" cy="2.5" r="2.5" transform="translate(353 339)" fill="#5e6c88"/></g><g transform="translate(-221 -325)"><circle cx="2.5" cy="2.5" r="2.5" transform="translate(353 339)" fill="#5e6c88"/></g><g transform="translate(-210 -325)"><circle cx="2.5" cy="2.5" r="2.5" transform="translate(353 339)" fill="#5e6c88"/></g><g transform="translate(-199 -325)"><circle cx="2.5" cy="2.5" r="2.5" transform="translate(353 339)" fill="#5e6c88"/></g><g transform="translate(-188 -325)"><circle cx="2.5" cy="2.5" r="2.5" transform="translate(353 339)" fill="#5e6c88"/></g><g transform="translate(-177 -325)"><circle cx="2.5" cy="2.5" r="2.5" transform="translate(353 339)" fill="#5e6c88"/></g><g transform="translate(-166 -325)"><circle cx="2.5" cy="2.5" r="2.5" transform="translate(353 339)" fill="#5e6c88"/></g><g transform="translate(-353 -311)"><circle cx="2.5" cy="2.5" r="2.5" transform="translate(353 339)" fill="#5e6c88"/></g><g transform="translate(-342 -311)"><circle cx="2.5" cy="2.5" r="2.5" transform="translate(353 339)" fill="#5e6c88"/></g><g transform="translate(-331 -311)"><circle cx="2.5" cy="2.5" r="2.5" transform="translate(353 339)" fill="#5e6c88"/></g><g transform="translate(-320 -311)"><circle cx="2.5" cy="2.5" r="2.5" transform="translate(353 339)" fill="#5e6c88"/></g><g transform="translate(-309 -311)"><circle cx="2.5" cy="2.5" r="2.5" transform="translate(353 339)" fill="#5e6c88"/></g><g transform="translate(-298 -311)"><circle cx="2.5" cy="2.5" r="2.5" transform="translate(353 339)" fill="#5e6c88"/></g><g transform="translate(-287 -311)"><circle cx="2.5" cy="2.5" r="2.5" transform="translate(353 339)" fill="#5e6c88"/></g><g transform="translate(-276 -311)"><circle cx="2.5" cy="2.5" r="2.5" transform="translate(353 339)" fill="#5e6c88"/></g><g transform="translate(-265 -311)"><circle cx="2.5" cy="2.5" r="2.5" transform="translate(353 339)" fill="#5e6c88"/></g><g transform="translate(-254 -311)"><circle cx="2.5" cy="2.5" r="2.5" transform="translate(353 339)" fill="#5e6c88"/></g><g transform="translate(-243 -311)"><circle cx="2.5" cy="2.5" r="2.5" transform="translate(353 339)" fill="#5e6c88"/></g><g transform="translate(-232 -311)"><circle cx="2.5" cy="2.5" r="2.5" transform="translate(353 339)" fill="#5e6c88"/></g><g transform="translate(-221 -311)"><circle cx="2.5" cy="2.5" r="2.5" transform="translate(353 339)" fill="#5e6c88"/></g><g transform="translate(-210 -311)"><circle cx="2.5" cy="2.5" r="2.5" transform="translate(353 339)" fill="#5e6c88"/></g><g transform="translate(-199 -311)"><circle cx="2.5" cy="2.5" r="2.5" transform="translate(353 339)" fill="#5e6c88"/></g><g transform="translate(-188 -311)"><circle cx="2.5" cy="2.5" r="2.5" transform="translate(353 339)" fill="#5e6c88"/></g><g transform="translate(-177 -311)"><circle cx="2.5" cy="2.5" r="2.5" transform="translate(353 339)" fill="#5e6c88"/></g><g transform="translate(-166 -311)"><circle cx="2.5" cy="2.5" r="2.5" transform="translate(353 339)" fill="#5e6c88"/></g><g transform="translate(-353 -297)"><circle cx="2.5" cy="2.5" r="2.5" transform="translate(353 339)" fill="#5e6c88"/></g><g transform="translate(-342 -297)"><circle cx="2.5" cy="2.5" r="2.5" transform="translate(353 339)" fill="#5e6c88"/></g><g transform="translate(-331 -297)"><circle cx="2.5" cy="2.5" r="2.5" transform="translate(353 339)" fill="#5e6c88"/></g><g transform="translate(-320 -297)"><circle cx="2.5" cy="2.5" r="2.5" transform="translate(353 339)" fill="#5e6c88"/></g><g transform="translate(-309 -297)"><circle cx="2.5" cy="2.5" r="2.5" transform="translate(353 339)" fill="#5e6c88"/></g><g transform="translate(-298 -297)"><circle cx="2.5" cy="2.5" r="2.5" transform="translate(353 339)" fill="#5e6c88"/></g><g transform="translate(-287 -297)"><circle cx="2.5" cy="2.5" r="2.5" transform="translate(353 339)" fill="#5e6c88"/></g><g transform="translate(-276 -297)"><circle cx="2.5" cy="2.5" r="2.5" transform="translate(353 339)" fill="#5e6c88"/></g><g transform="translate(-265 -297)"><circle cx="2.5" cy="2.5" r="2.5" transform="translate(353 339)" fill="#5e6c88"/></g><g transform="translate(-254 -297)"><circle cx="2.5" cy="2.5" r="2.5" transform="translate(353 339)" fill="#5e6c88"/></g><g transform="translate(-243 -297)"><circle cx="2.5" cy="2.5" r="2.5" transform="translate(353 339)" fill="#5e6c88"/></g><g transform="translate(-232 -297)"><circle cx="2.5" cy="2.5" r="2.5" transform="translate(353 339)" fill="#5e6c88"/></g><g transform="translate(-221 -297)"><circle cx="2.5" cy="2.5" r="2.5" transform="translate(353 339)" fill="#5e6c88"/></g><g transform="translate(-210 -297)"><circle cx="2.5" cy="2.5" r="2.5" transform="translate(353 339)" fill="#5e6c88"/></g><g transform="translate(-199 -297)"><circle cx="2.5" cy="2.5" r="2.5" transform="translate(353 339)" fill="#5e6c88"/></g><g transform="translate(-188 -297)"><circle cx="2.5" cy="2.5" r="2.5" transform="translate(353 339)" fill="#5e6c88"/></g><g transform="translate(-177 -297)"><circle cx="2.5" cy="2.5" r="2.5" transform="translate(353 339)" fill="#5e6c88"/></g><g transform="translate(-166 -297)"><circle cx="2.5" cy="2.5" r="2.5" transform="translate(353 339)" fill="#5e6c88"/></g><g transform="translate(-353 -283)"><circle cx="2.5" cy="2.5" r="2.5" transform="translate(353 339)" fill="#5e6c88"/></g><g transform="translate(-342 -283)"><circle cx="2.5" cy="2.5" r="2.5" transform="translate(353 339)" fill="#5e6c88"/></g><g transform="translate(-331 -283)"><circle cx="2.5" cy="2.5" r="2.5" transform="translate(353 339)" fill="#5e6c88"/></g><g transform="translate(-320 -283)"><circle cx="2.5" cy="2.5" r="2.5" transform="translate(353 339)" fill="#5e6c88"/></g><g transform="translate(-309 -283)"><circle cx="2.5" cy="2.5" r="2.5" transform="translate(353 339)" fill="#5e6c88"/></g><g transform="translate(-298 -283)"><circle cx="2.5" cy="2.5" r="2.5" transform="translate(353 339)" fill="#5e6c88"/></g><g transform="translate(-287 -283)"><circle cx="2.5" cy="2.5" r="2.5" transform="translate(353 339)" fill="#5e6c88"/></g><g transform="translate(-276 -283)"><circle cx="2.5" cy="2.5" r="2.5" transform="translate(353 339)" fill="#5e6c88"/></g><g transform="translate(-265 -283)"><circle cx="2.5" cy="2.5" r="2.5" transform="translate(353 339)" fill="#5e6c88"/></g><g transform="translate(-254 -283)"><circle cx="2.5" cy="2.5" r="2.5" transform="translate(353 339)" fill="#5e6c88"/></g><g transform="translate(-243 -283)"><circle cx="2.5" cy="2.5" r="2.5" transform="translate(353 339)" fill="#5e6c88"/></g><g transform="translate(-232 -283)"><circle cx="2.5" cy="2.5" r="2.5" transform="translate(353 339)" fill="#5e6c88"/></g><g transform="translate(-221 -283)"><circle cx="2.5" cy="2.5" r="2.5" transform="translate(353 339)" fill="#5e6c88"/></g><g transform="translate(-210 -283)"><circle cx="2.5" cy="2.5" r="2.5" transform="translate(353 339)" fill="#5e6c88"/></g><g transform="translate(-199 -283)"><circle cx="2.5" cy="2.5" r="2.5" transform="translate(353 339)" fill="#5e6c88"/></g><g transform="translate(-188 -283)"><circle cx="2.5" cy="2.5" r="2.5" transform="translate(353 339)" fill="#5e6c88"/></g><g transform="translate(-177 -283)"><circle cx="2.5" cy="2.5" r="2.5" transform="translate(353 339)" fill="#5e6c88"/></g><g transform="translate(-166 -283)"><circle cx="2.5" cy="2.5" r="2.5" transform="translate(353 339)" fill="#5e6c88"/></g><g transform="translate(-353 -269)"><circle cx="2.5" cy="2.5" r="2.5" transform="translate(353 339)" fill="#5e6c88"/></g><g transform="translate(-342 -269)"><circle cx="2.5" cy="2.5" r="2.5" transform="translate(353 339)" fill="#5e6c88"/></g><g transform="translate(-331 -269)"><circle cx="2.5" cy="2.5" r="2.5" transform="translate(353 339)" fill="#5e6c88"/></g><g transform="translate(-320 -269)"><circle cx="2.5" cy="2.5" r="2.5" transform="translate(353 339)" fill="#5e6c88"/></g><g transform="translate(-309 -269)"><circle cx="2.5" cy="2.5" r="2.5" transform="translate(353 339)" fill="#5e6c88"/></g><g transform="translate(-298 -269)"><circle cx="2.5" cy="2.5" r="2.5" transform="translate(353 339)" fill="#5e6c88"/></g><g transform="translate(-287 -269)"><circle cx="2.5" cy="2.5" r="2.5" transform="translate(353 339)" fill="#5e6c88"/></g><g transform="translate(-276 -269)"><circle cx="2.5" cy="2.5" r="2.5" transform="translate(353 339)" fill="#5e6c88"/></g><g transform="translate(-265 -269)"><circle cx="2.5" cy="2.5" r="2.5" transform="translate(353 339)" fill="#5e6c88"/></g><g transform="translate(-254 -269)"><circle cx="2.5" cy="2.5" r="2.5" transform="translate(353 339)" fill="#5e6c88"/></g><g transform="translate(-243 -269)"><circle cx="2.5" cy="2.5" r="2.5" transform="translate(353 339)" fill="#5e6c88"/></g><g transform="translate(-232 -269)"><circle cx="2.5" cy="2.5" r="2.5" transform="translate(353 339)" fill="#5e6c88"/></g><g transform="translate(-221 -269)"><circle cx="2.5" cy="2.5" r="2.5" transform="translate(353 339)" fill="#5e6c88"/></g><g transform="translate(-210 -269)"><circle cx="2.5" cy="2.5" r="2.5" transform="translate(353 339)" fill="#5e6c88"/></g><g transform="translate(-199 -269)"><circle cx="2.5" cy="2.5" r="2.5" transform="translate(353 339)" fill="#5e6c88"/></g><g transform="translate(-188 -269)"><circle cx="2.5" cy="2.5" r="2.5" transform="translate(353 339)" fill="#5e6c88"/></g><g transform="translate(-177 -269)"><circle cx="2.5" cy="2.5" r="2.5" transform="translate(353 339)" fill="#5e6c88"/></g><g transform="translate(-166 -269)"><circle cx="2.5" cy="2.5" r="2.5" transform="translate(353 339)" fill="#5e6c88"/></g><g transform="translate(-353 -255)"><circle cx="2.5" cy="2.5" r="2.5" transform="translate(353 339)" fill="#5e6c88"/></g><g transform="translate(-342 -255)"><circle cx="2.5" cy="2.5" r="2.5" transform="translate(353 339)" fill="#5e6c88"/></g><g transform="translate(-331 -255)"><circle cx="2.5" cy="2.5" r="2.5" transform="translate(353 339)" fill="#5e6c88"/></g><g transform="translate(-320 -255)"><circle cx="2.5" cy="2.5" r="2.5" transform="translate(353 339)" fill="#5e6c88"/></g><g transform="translate(-309 -255)"><circle cx="2.5" cy="2.5" r="2.5" transform="translate(353 339)" fill="#5e6c88"/></g><g transform="translate(-298 -255)"><circle cx="2.5" cy="2.5" r="2.5" transform="translate(353 339)" fill="#5e6c88"/></g><g transform="translate(-287 -255)"><circle cx="2.5" cy="2.5" r="2.5" transform="translate(353 339)" fill="#5e6c88"/></g><g transform="translate(-276 -255)"><circle cx="2.5" cy="2.5" r="2.5" transform="translate(353 339)" fill="#5e6c88"/></g><g transform="translate(-265 -255)"><circle cx="2.5" cy="2.5" r="2.5" transform="translate(353 339)" fill="#5e6c88"/></g><g transform="translate(-254 -255)"><circle cx="2.5" cy="2.5" r="2.5" transform="translate(353 339)" fill="#5e6c88"/></g><g transform="translate(-243 -255)"><circle cx="2.5" cy="2.5" r="2.5" transform="translate(353 339)" fill="#5e6c88"/></g><g transform="translate(-232 -255)"><circle cx="2.5" cy="2.5" r="2.5" transform="translate(353 339)" fill="#5e6c88"/></g><g transform="translate(-221 -255)"><circle cx="2.5" cy="2.5" r="2.5" transform="translate(353 339)" fill="#5e6c88"/></g><g transform="translate(-210 -255)"><circle cx="2.5" cy="2.5" r="2.5" transform="translate(353 339)" fill="#5e6c88"/></g><g transform="translate(-199 -255)"><circle cx="2.5" cy="2.5" r="2.5" transform="translate(353 339)" fill="#5e6c88"/></g><g transform="translate(-188 -255)"><circle cx="2.5" cy="2.5" r="2.5" transform="translate(353 339)" fill="#5e6c88"/></g><g transform="translate(-177 -255)"><circle cx="2.5" cy="2.5" r="2.5" transform="translate(353 339)" fill="#5e6c88"/></g><g transform="translate(-166 -255)"><circle cx="2.5" cy="2.5" r="2.5" transform="translate(353 339)" fill="#5e6c88"/></g><g transform="translate(-353 -241)"><circle cx="2.5" cy="2.5" r="2.5" transform="translate(353 339)" fill="#5e6c88"/></g><g transform="translate(-342 -241)"><circle cx="2.5" cy="2.5" r="2.5" transform="translate(353 339)" fill="#5e6c88"/></g><g transform="translate(-331 -241)"><circle cx="2.5" cy="2.5" r="2.5" transform="translate(353 339)" fill="#5e6c88"/></g><g transform="translate(-320 -241)"><circle cx="2.5" cy="2.5" r="2.5" transform="translate(353 339)" fill="#5e6c88"/></g><g transform="translate(-309 -241)"><circle cx="2.5" cy="2.5" r="2.5" transform="translate(353 339)" fill="#5e6c88"/></g><g transform="translate(-298 -241)"><circle cx="2.5" cy="2.5" r="2.5" transform="translate(353 339)" fill="#5e6c88"/></g><g transform="translate(-287 -241)"><circle cx="2.5" cy="2.5" r="2.5" transform="translate(353 339)" fill="#5e6c88"/></g><g transform="translate(-276 -241)"><circle cx="2.5" cy="2.5" r="2.5" transform="translate(353 339)" fill="#5e6c88"/></g><g transform="translate(-265 -241)"><circle cx="2.5" cy="2.5" r="2.5" transform="translate(353 339)" fill="#5e6c88"/></g><g transform="translate(-254 -241)"><circle cx="2.5" cy="2.5" r="2.5" transform="translate(353 339)" fill="#5e6c88"/></g><g transform="translate(-243 -241)"><circle cx="2.5" cy="2.5" r="2.5" transform="translate(353 339)" fill="#5e6c88"/></g><g transform="translate(-232 -241)"><circle cx="2.5" cy="2.5" r="2.5" transform="translate(353 339)" fill="#5e6c88"/></g><g transform="translate(-221 -241)"><circle cx="2.5" cy="2.5" r="2.5" transform="translate(353 339)" fill="#5e6c88"/></g><g transform="translate(-210 -241)"><circle cx="2.5" cy="2.5" r="2.5" transform="translate(353 339)" fill="#5e6c88"/></g><g transform="translate(-199 -241)"><circle cx="2.5" cy="2.5" r="2.5" transform="translate(353 339)" fill="#5e6c88"/></g><g transform="translate(-188 -241)"><circle cx="2.5" cy="2.5" r="2.5" transform="translate(353 339)" fill="#5e6c88"/></g><g transform="translate(-177 -241)"><circle cx="2.5" cy="2.5" r="2.5" transform="translate(353 339)" fill="#5e6c88"/></g><g transform="translate(-166 -241)"><circle cx="2.5" cy="2.5" r="2.5" transform="translate(353 339)" fill="#5e6c88"/></g><g transform="translate(-353 -227)"><circle cx="2.5" cy="2.5" r="2.5" transform="translate(353 339)" fill="#5e6c88"/></g><g transform="translate(-342 -227)"><circle cx="2.5" cy="2.5" r="2.5" transform="translate(353 339)" fill="#5e6c88"/></g><g transform="translate(-331 -227)"><circle cx="2.5" cy="2.5" r="2.5" transform="translate(353 339)" fill="#5e6c88"/></g><g transform="translate(-320 -227)"><circle cx="2.5" cy="2.5" r="2.5" transform="translate(353 339)" fill="#5e6c88"/></g><g transform="translate(-309 -227)"><circle cx="2.5" cy="2.5" r="2.5" transform="translate(353 339)" fill="#5e6c88"/></g><g transform="translate(-298 -227)"><circle cx="2.5" cy="2.5" r="2.5" transform="translate(353 339)" fill="#5e6c88"/></g><g transform="translate(-287 -227)"><circle cx="2.5" cy="2.5" r="2.5" transform="translate(353 339)" fill="#5e6c88"/></g><g transform="translate(-276 -227)"><circle cx="2.5" cy="2.5" r="2.5" transform="translate(353 339)" fill="#5e6c88"/></g><g transform="translate(-265 -227)"><circle cx="2.5" cy="2.5" r="2.5" transform="translate(353 339)" fill="#5e6c88"/></g><g transform="translate(-254 -227)"><circle cx="2.5" cy="2.5" r="2.5" transform="translate(353 339)" fill="#5e6c88"/></g><g transform="translate(-243 -227)"><circle cx="2.5" cy="2.5" r="2.5" transform="translate(353 339)" fill="#5e6c88"/></g><g transform="translate(-232 -227)"><circle cx="2.5" cy="2.5" r="2.5" transform="translate(353 339)" fill="#5e6c88"/></g><g transform="translate(-221 -227)"><circle cx="2.5" cy="2.5" r="2.5" transform="translate(353 339)" fill="#5e6c88"/></g><g transform="translate(-210 -227)"><circle cx="2.5" cy="2.5" r="2.5" transform="translate(353 339)" fill="#5e6c88"/></g><g transform="translate(-199 -227)"><circle cx="2.5" cy="2.5" r="2.5" transform="translate(353 339)" fill="#5e6c88"/></g><g transform="translate(-188 -227)"><circle cx="2.5" cy="2.5" r="2.5" transform="translate(353 339)" fill="#5e6c88"/></g><g transform="translate(-177 -227)"><circle cx="2.5" cy="2.5" r="2.5" transform="translate(353 339)" fill="#5e6c88"/></g><g transform="translate(-166 -227)"><circle cx="2.5" cy="2.5" r="2.5" transform="translate(353 339)" fill="#5e6c88"/></g><g transform="translate(-353 -213)"><circle cx="2.5" cy="2.5" r="2.5" transform="translate(353 339)" fill="#5e6c88"/></g><g transform="translate(-342 -213)"><circle cx="2.5" cy="2.5" r="2.5" transform="translate(353 339)" fill="#5e6c88"/></g><g transform="translate(-331 -213)"><circle cx="2.5" cy="2.5" r="2.5" transform="translate(353 339)" fill="#5e6c88"/></g><g transform="translate(-320 -213)"><circle cx="2.5" cy="2.5" r="2.5" transform="translate(353 339)" fill="#5e6c88"/></g><g transform="translate(-309 -213)"><circle cx="2.5" cy="2.5" r="2.5" transform="translate(353 339)" fill="#5e6c88"/></g><g transform="translate(-298 -213)"><circle cx="2.5" cy="2.5" r="2.5" transform="translate(353 339)" fill="#5e6c88"/></g><g transform="translate(-287 -213)"><circle cx="2.5" cy="2.5" r="2.5" transform="translate(353 339)" fill="#5e6c88"/></g><g transform="translate(-276 -213)"><circle cx="2.5" cy="2.5" r="2.5" transform="translate(353 339)" fill="#5e6c88"/></g><g transform="translate(-265 -213)"><circle cx="2.5" cy="2.5" r="2.5" transform="translate(353 339)" fill="#5e6c88"/></g><g transform="translate(-254 -213)"><circle cx="2.5" cy="2.5" r="2.5" transform="translate(353 339)" fill="#5e6c88"/></g><g transform="translate(-243 -213)"><circle cx="2.5" cy="2.5" r="2.5" transform="translate(353 339)" fill="#5e6c88"/></g><g transform="translate(-232 -213)"><circle cx="2.5" cy="2.5" r="2.5" transform="translate(353 339)" fill="#5e6c88"/></g><g transform="translate(-221 -213)"><circle cx="2.5" cy="2.5" r="2.5" transform="translate(353 339)" fill="#5e6c88"/></g><g transform="translate(-210 -213)"><circle cx="2.5" cy="2.5" r="2.5" transform="translate(353 339)" fill="#5e6c88"/></g><g transform="translate(-199 -213)"><circle cx="2.5" cy="2.5" r="2.5" transform="translate(353 339)" fill="#5e6c88"/></g><g transform="translate(-188 -213)"><circle cx="2.5" cy="2.5" r="2.5" transform="translate(353 339)" fill="#5e6c88"/></g><g transform="translate(-177 -213)"><circle cx="2.5" cy="2.5" r="2.5" transform="translate(353 339)" fill="#5e6c88"/></g><g transform="translate(-166 -213)"><circle cx="2.5" cy="2.5" r="2.5" transform="translate(353 339)" fill="#5e6c88"/></g><g transform="translate(-353 -199)"><circle cx="2.5" cy="2.5" r="2.5" transform="translate(353 339)" fill="#5e6c88"/></g><g transform="translate(-342 -199)"><circle cx="2.5" cy="2.5" r="2.5" transform="translate(353 339)" fill="#5e6c88"/></g><g transform="translate(-331 -199)"><circle cx="2.5" cy="2.5" r="2.5" transform="translate(353 339)" fill="#5e6c88"/></g><g transform="translate(-320 -199)"><circle cx="2.5" cy="2.5" r="2.5" transform="translate(353 339)" fill="#5e6c88"/></g><g transform="translate(-309 -199)"><circle cx="2.5" cy="2.5" r="2.5" transform="translate(353 339)" fill="#5e6c88"/></g><g transform="translate(-298 -199)"><circle cx="2.5" cy="2.5" r="2.5" transform="translate(353 339)" fill="#5e6c88"/></g><g transform="translate(-287 -199)"><circle cx="2.5" cy="2.5" r="2.5" transform="translate(353 339)" fill="#5e6c88"/></g><g transform="translate(-276 -199)"><circle cx="2.5" cy="2.5" r="2.5" transform="translate(353 339)" fill="#5e6c88"/></g><g transform="translate(-265 -199)"><circle cx="2.5" cy="2.5" r="2.5" transform="translate(353 339)" fill="#5e6c88"/></g><g transform="translate(-254 -199)"><circle cx="2.5" cy="2.5" r="2.5" transform="translate(353 339)" fill="#5e6c88"/></g><g transform="translate(-243 -199)"><circle cx="2.5" cy="2.5" r="2.5" transform="translate(353 339)" fill="#5e6c88"/></g><g transform="translate(-232 -199)"><circle cx="2.5" cy="2.5" r="2.5" transform="translate(353 339)" fill="#5e6c88"/></g><g transform="translate(-221 -199)"><circle cx="2.5" cy="2.5" r="2.5" transform="translate(353 339)" fill="#5e6c88"/></g><g transform="translate(-210 -199)"><circle cx="2.5" cy="2.5" r="2.5" transform="translate(353 339)" fill="#5e6c88"/></g><g transform="translate(-199 -199)"><circle cx="2.5" cy="2.5" r="2.5" transform="translate(353 339)" fill="#5e6c88"/></g><g transform="translate(-188 -199)"><circle cx="2.5" cy="2.5" r="2.5" transform="translate(353 339)" fill="#5e6c88"/></g><g transform="translate(-177 -199)"><circle cx="2.5" cy="2.5" r="2.5" transform="translate(353 339)" fill="#5e6c88"/></g><g transform="translate(-166 -199)"><circle cx="2.5" cy="2.5" r="2.5" transform="translate(353 339)" fill="#5e6c88"/></g><g transform="translate(-353 -185)"><circle cx="2.5" cy="2.5" r="2.5" transform="translate(353 339)" fill="#5e6c88"/></g><g transform="translate(-342 -185)"><circle cx="2.5" cy="2.5" r="2.5" transform="translate(353 339)" fill="#5e6c88"/></g><g transform="translate(-331 -185)"><circle cx="2.5" cy="2.5" r="2.5" transform="translate(353 339)" fill="#5e6c88"/></g><g transform="translate(-320 -185)"><circle cx="2.5" cy="2.5" r="2.5" transform="translate(353 339)" fill="#5e6c88"/></g><g transform="translate(-309 -185)"><circle cx="2.5" cy="2.5" r="2.5" transform="translate(353 339)" fill="#5e6c88"/></g><g transform="translate(-298 -185)"><circle cx="2.5" cy="2.5" r="2.5" transform="translate(353 339)" fill="#5e6c88"/></g><g transform="translate(-287 -185)"><circle cx="2.5" cy="2.5" r="2.5" transform="translate(353 339)" fill="#5e6c88"/></g><g transform="translate(-276 -185)"><circle cx="2.5" cy="2.5" r="2.5" transform="translate(353 339)" fill="#5e6c88"/></g><g transform="translate(-265 -185)"><circle cx="2.5" cy="2.5" r="2.5" transform="translate(353 339)" fill="#5e6c88"/></g><g transform="translate(-254 -185)"><circle cx="2.5" cy="2.5" r="2.5" transform="translate(353 339)" fill="#5e6c88"/></g><g transform="translate(-243 -185)"><circle cx="2.5" cy="2.5" r="2.5" transform="translate(353 339)" fill="#5e6c88"/></g><g transform="translate(-232 -185)"><circle cx="2.5" cy="2.5" r="2.5" transform="translate(353 339)" fill="#5e6c88"/></g><g transform="translate(-221 -185)"><circle cx="2.5" cy="2.5" r="2.5" transform="translate(353 339)" fill="#5e6c88"/></g><g transform="translate(-210 -185)"><circle cx="2.5" cy="2.5" r="2.5" transform="translate(353 339)" fill="#5e6c88"/></g><g transform="translate(-199 -185)"><circle cx="2.5" cy="2.5" r="2.5" transform="translate(353 339)" fill="#5e6c88"/></g><g transform="translate(-188 -185)"><circle cx="2.5" cy="2.5" r="2.5" transform="translate(353 339)" fill="#5e6c88"/></g><g transform="translate(-177 -185)"><circle cx="2.5" cy="2.5" r="2.5" transform="translate(353 339)" fill="#5e6c88"/></g><g transform="translate(-166 -185)"><circle cx="2.5" cy="2.5" r="2.5" transform="translate(353 339)" fill="#5e6c88"/></g></g></g></svg>