<svg xmlns="http://www.w3.org/2000/svg" xmlns:xlink="http://www.w3.org/1999/xlink" width="111" height="111" viewBox="0 0 111 111"><defs><linearGradient id="a" x1="0.5" x2="0.5" y2="1" gradientUnits="objectBoundingBox"><stop offset="0" stop-color="#07a4ff"/><stop offset="1" stop-color="#0767f8"/></linearGradient><filter id="b" x="0" y="0" width="111" height="111" filterUnits="userSpaceOnUse"><feOffset dy="15" input="SourceAlpha"/><feGaussianBlur stdDeviation="15" result="c"/><feFlood flood-color="#07a4ff" flood-opacity="0.529"/><feComposite operator="in" in2="c"/><feComposite in="SourceGraphic"/></filter></defs><g transform="matrix(1, 0, 0, 1, 0, 0)" filter="url(#b)"><path d="M21.563,11.063a10.5,10.5,0,1,1-10.5-10.5A10.5,10.5,0,0,1,21.563,11.063ZM9.848,16.622l7.79-7.79a.677.677,0,0,0,0-.958l-.958-.958a.677.677,0,0,0-.958,0L9.369,13.269,6.4,10.3a.677.677,0,0,0-.958,0l-.958.958a.677.677,0,0,0,0,.958l4.4,4.4a.677.677,0,0,0,.958,0Z" transform="translate(44.44 29.44)" fill="url(#a)"/></g></svg>