<svg xmlns="http://www.w3.org/2000/svg" xmlns:xlink="http://www.w3.org/1999/xlink" width="174" height="166" viewBox="0 0 174 166"><defs><clipPath id="a"><rect width="174" height="107" transform="translate(645 5157)" fill="#fff" stroke="#707070" stroke-width="1"/></clipPath></defs><g transform="translate(-439 -5384)"><text transform="translate(487 5543)" fill="#163470" font-size="25" font-family="ProximaNova-Bold, Proxima Nova" font-weight="700"><tspan x="0" y="0">Saudia</tspan></text><g transform="translate(-206 227)" clip-path="url(#a)"><g transform="translate(650.82 5157)"><path d="M162.359,127.883A15.493,15.493,0,0,1,146.647,143.2H15.712A15.493,15.493,0,0,1,0,127.883V51.526A15.493,15.493,0,0,1,15.712,36.2H146.647a15.493,15.493,0,0,1,15.712,15.322Z" transform="translate(0 -36.204)" fill="#096"/><path d="M22.394,36.2H153.329a15.493,15.493,0,0,1,15.712,15.322v76.357A15.493,15.493,0,0,1,153.329,143.2" transform="translate(-6.682 -36.204)" fill="#038e5c"/><g transform="translate(0 2)"><path d="M162.359,172.437a15.493,15.493,0,0,1-15.712,15.322H15.712A15.493,15.493,0,0,1,0,172.437" transform="translate(0 -80.758)" fill="#007a54"/><path d="M22.394,36.2H153.329a15.493,15.493,0,0,1,15.712,15.322v27.88" transform="translate(-6.682 -36.204)" fill="#007a54"/></g><g transform="translate(15.322 22.659)"><path d="M27.921,71.66c1.047-.754,1.047,1.256,0,3.516.524-.754,1.571-2.512,1.309-3.768-.262-1.758-1.309-1.507-2.095-.5C26.611,71.66,26.873,72.162,27.921,71.66Z" transform="translate(-23.341 -69.955)" fill="#fff"/><path d="M26.68,85.9c1.309-2.261.786-4.019,1.833-7.284.786-2.009.786-.5.786.754-.524,3.265-.262,8.54,4.452,8.289.262,3.014,1.047,8.289,1.047,10.3,0,1.758.262,1.256.786.251s.262-2.261.262-3.768-.262-4.27-.524-8.038a9.5,9.5,0,0,0,1.571-1.758c.524-1.256.786-1,1.047,0,.524,2.009,2.619,3.265,5.237,1.256,2.619-1.758,1.571-5.275.262-9.042,1.047.251,1.309-.5.786-1.507-.262-.5-.786-1-1.047-1.507-.524-.5-.786-1-1.309-.5s-.786,1-1.047,1.256-.262.754,0,1.507a28.321,28.321,0,0,1,1.833,6.028c.262,1.256-.262,1.507-1.309,1.507a2.571,2.571,0,0,1-2.619-2.261c-.524-2.009-.786-2.763-.524-4.27,0-1.256.262-2.261-.786-3.516s-1.047-1-1.309-.5a5.438,5.438,0,0,0-.262,3.014c.524,1.758.786,3.265,1.047,4.27.262.754-.524,2.261-1.833,3.014-.262-2.512-.524-5.526-.786-8.289,1.571-.5.786-2.261-.524-4.27-.786-1.507-1.309-1-1.833,0a1.812,1.812,0,0,0,.262,2.261c-.262.754.262,1.758.524,3.516a47.094,47.094,0,0,1,.524,7.284,2.782,2.782,0,0,1-2.357-1.758,6.8,6.8,0,0,1-.262-5.023c.524-1.256.786-3.014,0-3.516s-1.571,0-2.095,1a10.353,10.353,0,0,0-2.095,5.777,7.474,7.474,0,0,1-.786,3.265c-.262.754-1.047.754-1.571-.251-1.047-1.507-1.309-5.526-1.309-7.535,0-1-.262-1.256-.524,0a15.7,15.7,0,0,0,1.047,9.8C24.585,87.906,25.895,87.4,26.68,85.9Z" transform="translate(-21.839 -69.875)" fill="#fff"/><path d="M45.606,72.941c.524-.5.524-.5.786,0a.757.757,0,0,0,1.309,0c.262-.5.524-.754.262-1.507-.262-.5-.262-.251-.524.251-.262,1-1.309.754-1.309-.5s-.262-.5-.786.251c-.524,1.256-1.309,1-1.309-.251,0-.754-.262-1.507-.786-.5a2.574,2.574,0,0,0,.262,2.009C44.3,73.443,45.083,73.443,45.606,72.941Z" transform="translate(-28.195 -69.98)" fill="#fff"/><path d="M31.9,101.365c.786-.251.786-.251.786-1.256s-.524-.5-1.571-.251a16.717,16.717,0,0,0-7.07,4.772c-1.047,1.256-.262.754.524.251A27.9,27.9,0,0,1,31.9,101.365Z" transform="translate(-22.347 -79.567)" fill="#fff"/><path d="M26.862,122.537c-.786,1.256-2.357-.5-1.309-3.768a6.189,6.189,0,0,0,.524-1.758v-1.758c0-.5-.524.251-.786,1.256-.262,1.507-1.309,2.261-1.047,7.033.262,2.763,3.666,2.763,3.928-.754C28.171,121.281,27.647,121.281,26.862,122.537Z" transform="translate(-22.544 -84.664)" fill="#fff"/><path d="M52.147,97.749c0-1.256-.262-2.512-.262-3.768.262,0,.262-.251.524-.251.786,2.261,4.19,1.758,5.237.251.524-.754.524-.754,1.047,0,.786,1,3.4,1.507,3.928,0a7.264,7.264,0,0,0,.262-4.019c-.262-1.256-.524-1-1.309-.5s-.262.754,0,1.507c.262,3.014-2.357,2.763-2.619-.251-.262-2.009-.524-1.256-.786-.251-1.309,3.768-4.714,4.521-4.19,0,0-1.256-.786-.754-1.309-.251l-1.047,1c-.262-3.516-.524-7.535-1.047-12.559,1.047,1.256,2.095-.251,1.309-1.507-.524-1-1.309-3.516-1.833-4.772s-.786-1-1.833.251c-1.047,1-.786,1.256-.524,2.512a24.783,24.783,0,0,0,.524,5.526c.262,2.009.786,6.279,1.309,11.554-.524.251-1.309.754-1.833,1-.262-1-1.047-1.507-2.095-2.512-1.571-1.507-2.619-1.507-3.928.251s-1.047,2.009-1.047,3.768c0,1.507-.262,2.009,1.047,2.512a3.113,3.113,0,0,0,2.619,0,12.534,12.534,0,0,1,2.357-.754,2.337,2.337,0,0,1-.524,2.261c-3.142,3.516-7.856,6.279-9.951,3.768a7.718,7.718,0,0,1-1.309-5.777c.262-2.009-.262-1-.524-.5-.786,2.261-1.047,5.777,0,7.535,1.309,2.512,3.666,3.516,7.332,1.758,3.666-1.507,7.07-4.27,7.07-8.038V95.74a5.775,5.775,0,0,0,1.309-.754v4.27c.262,4.019-1.571,5.275-3.142,6.531a16.611,16.611,0,0,1-7.594,3.014c-5.761.754-7.07-2.763-7.07-7.535,0-.754.262-1.256.262-2.261,0-2.009-.262-1.758-1.047.251-.524,2.009-1.309,6.531.524,10.3,2.095,3.768,8.9,2.763,14.141.251C51.886,107.042,52.409,102.521,52.147,97.749Zm-7.332-3.768c-1.309.5-1.833-.251-1.571-1,0-.754.262-1.256,1.309-.754a4.365,4.365,0,0,1,1.571,1.507A3.637,3.637,0,0,1,44.815,93.981Z" transform="translate(-24.523 -70.425)" fill="#fff"/><path d="M69.1,114.472a4.62,4.62,0,0,0,.524-3.265c-.262-.754,0-1-.786-1.507-.786-.251-1.047.251-1.309.754-.262.754.262,1.758,1.309,1.256a4.355,4.355,0,0,1-.262,2.512C68.314,115.226,68.575,115.477,69.1,114.472Z" transform="translate(-35.452 -82.878)" fill="#fff"/><path d="M72.292,86.2c-1.047,1.256-1.833,3.014-.262,4.019.786.5,2.357-.251,2.881-1.256.524-1.256.262-1.507-.786-.251-1.309,1.507-2.881.251-1.309-2.009C73.864,85.2,73.078,84.945,72.292,86.2Z" transform="translate(-36.55 -74.952)" fill="#fff"/><path d="M65.835,81.627c3.666-1.507,5.761-3.516,6.809-5.275,1.047.251,1.309-.5.786-1.256a11.988,11.988,0,0,1,.786-1.758c.786-3.265-2.619-3.516-3.4-1-.524,1.256-.524,2.512.524,3.265a21.365,21.365,0,0,1-6.285,5.275C64,81.878,64.264,82.381,65.835,81.627Zm6.285-8.791c.262-.754.786-.251.786.251a1.875,1.875,0,0,1-.524,1C71.858,73.841,71.858,73.338,72.12,72.836Z" transform="translate(-34.545 -70.127)" fill="#fff"/></g><path d="M73.382,72.334c-.524,1.256-.524,2.512.524,3.265-.262.251-.524.754-.786,1l1.309,1c.262-.5.786-.754,1.047-1.256,1.047.251,1.309-.5.786-1.256a11.987,11.987,0,0,1,.786-1.758C77.572,70.073,74.429,69.822,73.382,72.334Zm2.095.754a1.875,1.875,0,0,1-.524,1c-.524-.251-.524-.754-.262-1.256C74.953,72.083,75.477,72.585,75.477,73.087Z" transform="translate(-21.794 -47.468)" fill="#cfe7e8"/><path d="M72.6,109.33a9.687,9.687,0,0,0-1.833,1.507c0-1,.262-2.512.262-3.014,0-.754-.262-1-.786-.251a19.453,19.453,0,0,0-1.833,5.023,75.945,75.945,0,0,1-10.475,5.777c-1.309.5-.524,1,.524.754,3.928-1.256,7.07-2.261,9.951-3.516.262,2.261,1.047,3.768,3.142,4.27,3.928,1,7.856-2.261,12.308-8.038,1.047,2.763,3.666,6.531,10.475,7.535,2.881.5,2.619.251,3.142-1.256.262-1.256.786-1.507-1.571-2.009-2.881-1-3.928-3.014-1.047-4.27a49.593,49.593,0,0,1,9.427-2.763c1.833-.251,2.357-.251,2.881-1.758.524-1.758.786-2.009-1.047-1.758a140.257,140.257,0,0,1-14.665.251c2.095-1,4.976-2.009,7.07-2.763.786.5,1.047.251.786-.251a9.505,9.505,0,0,0,2.357-1c2.357-1.256,3.4-4.019.786-5.777s-4.714-2.261-6.023-.5c-1.047,1.507-2.095,3.014-.524,5.023-2.357.754-4.452,1.507-6.547,2.261-1.571.5-2.357.754-2.881,2.763s-.786,2.009,1.309,2.261c2.881,0,5.5,0,7.332,1.507-2.881,1-4.976,3.014-3.928,5.777a7.1,7.1,0,0,1-3.666-1.758c-2.095-2.009-2.095-5.526-2.881-9.545a34.167,34.167,0,0,0-3.4-9.042c-.524-1.507-.786-.754-1.309.251s-1.047,1.507-.524,3.014a101.512,101.512,0,0,1,3.4,10.549c-1.571,3.516-5.761,7.786-9.165,8.289-2.619.5-3.4-1-3.142-2.261a23.346,23.346,0,0,0,4.976-3.768c3.142-3.265,3.666-5.777,1.571-11.052q1.964.377-.786-3.014c-1.309-1.507-1.571-1.256-2.357.251-.524,1.256-1.047,2.261.524,2.763A16.248,16.248,0,0,0,76,102.8C77.574,106.065,74.955,107.321,72.6,109.33ZM97.476,98.278c0-.754.262-.754,1.571,0s2.357,1,.524,1.256c-.524.251-1.309.251-1.833.5A3.587,3.587,0,0,0,97.476,98.278Z" transform="translate(-17.082 -55.076)" fill="#fff"/><g transform="translate(63.111 38.681)"><path d="M121.851,111.185c-1.309,0-7.07.251-11,.251l5.237,4.27a30.635,30.635,0,0,1,3.928-1c1.833-.251,2.357-.251,2.881-1.758C123.422,111.185,123.684,110.934,121.851,111.185Z" transform="translate(-96.187 -99.38)" fill="#cfe7e8"/><path d="M89.951,93.683l.524.5C90.474,93.683,90.213,93.683,89.951,93.683Z" transform="translate(-89.951 -93.683)" fill="#cfe7e8"/><path d="M107.761,104.684c1.571-.754,3.4-1.256,4.714-1.758.786.5,1.047.251.786-.251a9.505,9.505,0,0,0,2.357-1c2.357-1.256,3.4-4.019.786-5.777s-4.714-2.261-6.023-.5c-1.047,1.507-2.095,3.014-.524,5.023a28.688,28.688,0,0,0-4.976,1.758Zm5.761-6.279c1.309.754,2.357,1,.524,1.256-.524.251-1.309.251-1.833.5a4.254,4.254,0,0,1-.262-1.507C111.689,97.651,112.213,97.651,113.522,98.4Z" transform="translate(-94.405 -93.884)" fill="#cfe7e8"/></g><path d="M121.582,128.5a13.842,13.842,0,0,0,3.142-1.758c1.047-1,.262-.754-.524-.5a27.854,27.854,0,0,1-2.619,1c-1.047.5-1.309,0-.786-1.758.524-1.507,0-1.507-.786-1.256s-1.047.754-1.833,1.256c-.524.251-.524.754.786.251,1.047-.5.786,0,.524,1.256C118.963,128.247,119.749,129,121.582,128.5Z" transform="translate(-35.165 -64.951)" fill="#fff"/><g transform="translate(56.507 22.111)"><path d="M86.095,83.119c.786-1.758,1.309-3.516,1.833-4.772s1.047-1,.786.251c-.262,2.261-.262,5.777,2.095,7.284,2.357,1.256,6.023-1,7.332-3.516,3.928,4.772,7.332,2.512,7.594-2.009a17.4,17.4,0,0,0-1.047-5.526c-.524-1,0-1,.524-.5s1.571,1,1.047-.754a8.045,8.045,0,0,0-2.095-3.265c-.786-.754-1.047-.251-1.309.251a3.321,3.321,0,0,1-.786,1.256c-.524.5-.262.754,0,1.507,1.571,3.516,2.881,8.791.524,9.293-2.095.5-3.4-4.019-3.4-6.028a19.716,19.716,0,0,0-1.047-6.279c-.524-1.507-.786-1.507-1.309-.754-.262.5-.262,1-.786,1.507-.262.5,0,.754.262,1.758,1.309,5.777,1.047,8.289-1.571,9.8s-4.19,0-4.19-1.758a37.316,37.316,0,0,1,.262-5.526c.262-1.507.524-2.009,0-2.763s-1.047-.5-1.833.5a35.671,35.671,0,0,0-3.928,7.786c-.524,1.758-1.833,1.256-2.619-.251-1.047-1.758-.786-5.023-.524-6.531.262-1.256.262-1.758-.524-.5-1.309,3.516-1.309,7.033,1.571,10.047C84.262,85.882,85.309,84.877,86.095,83.119Z" transform="translate(-80.539 -69.06)" fill="#cfe7e8"/><path d="M98.3,77.07c0,.754,0,1.758.524.251a9.679,9.679,0,0,0-.262-4.772c-.524-1.256-.786-1.507-1.309-1s-.524.754,0,1.256A6.506,6.506,0,0,1,98.3,77.07Z" transform="translate(-85.408 -69.793)" fill="#cfe7e8"/><path d="M105.032,96.87c0,2.009-.524,2.009-1.309,0-.262-.754-.524-.754-.786.251,0,1.758-.786,2.009-1.309.251-.262-.754-.262-1.507-.524-.251a2.827,2.827,0,0,0,.524,2.512c.524.5,1.309.5,1.571-.251s.524-.754,1.047-.251,2.619,0,1.571-2.763C105.294,95.363,105.032,95.614,105.032,96.87Z" transform="translate(-86.645 -77.788)" fill="#cfe7e8"/><path d="M136.768,72.786a3.282,3.282,0,0,1,1.309,3.265c-.262,1.256,0,2.009.786.251a5.557,5.557,0,0,0-.524-5.023c-.786-1.256-1.047-.754-1.571-.251C136.244,71.781,135.982,72.535,136.768,72.786Z" transform="translate(-97.169 -69.528)" fill="#cfe7e8"/><path d="M117.721,73.321c0,.754.262,1.256,1.309,1.507,2.095,2.763,4.452,5.777,6.547,8.54.262,2.512.786,5.023,1.047,7.284.524,5.023,1.571,11.805.786,14.819-.524,2.261,0,3.014,1.047-.251s1.047-6.531.262-11.3c-.262-2.009-.262-4.27-.524-6.782,3.4,5.275,6.809,10.3,8.118,13.815.786,2.009,1.571,2.261.786-.251-.786-3.516-4.19-9.545-9.427-17.08a42.736,42.736,0,0,1-.262-5.526c.786.754,1.309.251,1.047-.754a47.581,47.581,0,0,0-2.095-5.526c-.262-1-1.309-1-1.833.251-.524,1.507-.524,1.758,0,2.763a37.169,37.169,0,0,0,.524,4.772,44.44,44.44,0,0,0-3.142-4.27c1.309.5,2.357.251,1.047-1.256-1.309-1.256-3.142-2.763-4.19-3.768s-1.571-.251-1.571.5C117.721,72.065,117.983,72.567,117.721,73.321Z" transform="translate(-91.477 -69.31)" fill="#cfe7e8"/><path d="M138.55,84.786c-.262,1.256-.786.754-1.047-.251-.262-.5-.524-.251-.524.754.262,1,.524,1.758,1.309,1,.524-.5.524-.5,1.309,0,.524.5,1.047,0,1.309-.251a4.482,4.482,0,0,0,0-2.009c-.262-1.256-.524-.5-.786.5s-.786,1.256-1.047,0C139.074,83.53,138.55,83.781,138.55,84.786Z" transform="translate(-97.38 -73.742)" fill="#cfe7e8"/><path d="M143.473,97.11c.262,4.521.786,6.531-2.095,9.8-3.142,3.265-5.237,4.27-6.547,4.521-1.833.5-2.357,1.256.262,1,3.928-.251,4.452-.251,7.856-4.019,1.833-2.009,2.619-4.521,2.619-10.549C145.306,87.314,144,82.793,144,77.016c.524.5,1.309.5,1.047-.5A22.731,22.731,0,0,1,144,72.495c-.524-1.256-.786-1.758-1.309-1s-1.047,1-1.309,1.507a1.848,1.848,0,0,0,0,2.009C142.949,87.314,143.211,92.589,143.473,97.11Z" transform="translate(-96.28 -69.739)" fill="#cfe7e8"/><path d="M156.04,98.338c.262,2.512.786,4.27,0,7.284-.262.754.262,1.256.786,0,2.357-4.27.786-8.038.524-10.549-.262-3.768-1.833-13.563-2.095-17.582l.262.251c1.047.5,2.357,1,1.571-.5a29.237,29.237,0,0,1-2.095-5.023c-.524-1.507-.786-1.507-1.571-.251-1.571,2.009-.524,4.019,0,6.531C154.469,87.035,155.779,95.826,156.04,98.338Z" transform="translate(-102.039 -69.712)" fill="#cfe7e8"/><path d="M164.788,89.11a18.568,18.568,0,0,1,1.833,3.014c.524,1.256,1.047.251,1.047-.5a18.119,18.119,0,0,1,0-3.768c.524-1.256,1.309.5,1.571-.251.262-.5-.262-.754-.524-1.256-.262-.754-.524-.5-1.047-.251a2.274,2.274,0,0,0-.786,1.256v2.763c0,1-.262,1-.524.5a11.117,11.117,0,0,0-1.571-3.014.737.737,0,0,0-1.309.5v1.256C163.479,89.864,164.526,89.864,164.788,89.11Z" transform="translate(-105.287 -74.55)" fill="#cfe7e8"/><path d="M164.6,102.577c0,.754,1.047-.251,1.833-.754s3.142-2.009,4.19-2.512.786-.754.524-1.758c0-1-.786-.251-1.571.5s-3.142,2.261-3.928,3.014S164.6,102.075,164.6,102.577Z" transform="translate(-105.621 -78.22)" fill="#cfe7e8"/><path d="M155.65,107.235a11.805,11.805,0,0,1-1.047-5.777c0-1.507-.262-2.763-.786-.251-1.571,6.028-.524,7.284,1.047,8.54,2.095,1.758,2.881,2.009,3.928.251,2.095-3.014,2.881-5.526,3.928-7.033,1.047-1.256,1.047-.251,1.571.251a5.832,5.832,0,0,0,4.19,2.261c1.833.251,4.976-1.256,4.714-6.782-.262-3.516-.524-8.038-.786-13.061,1.833,2.261,3.142,4.27,4.452,6.028a56.681,56.681,0,0,1,.786,8.54c-.262,2.763.524,2.763,1.047,0a24.1,24.1,0,0,0,0-6.279,46.143,46.143,0,0,1,4.452,6.279c1.047,1.758,1.571,3.014,1.309-.251,0-1.256-.524-2.261-2.095-4.521-1.571-2.009-2.881-4.019-4.19-6.028-.524-4.772-1.047-10.047-1.047-12.81.786.5,1.309,0,.786-1a36.993,36.993,0,0,0-1.571-5.023c-.524-1-1.047-1-1.571.251-.524,1-1.047,1.507-.786,2.261a98.408,98.408,0,0,0,1.571,13.312c-1.309-1.758-2.619-3.516-3.666-5.023,0-1.758-.262-3.516-.262-5.275.786.5,1.047.5.786-.754a32.729,32.729,0,0,0-1.833-4.521c-.524-1-.786-1-1.309-.251-.786,1.256-1.047,2.261-.262,3.516,0,1.256.262,2.261.262,3.516a26.387,26.387,0,0,0-2.095-2.763c.786.251,1.309-.251.524-1s-2.357-2.009-3.142-2.763c-.786-1-1.309-.754-1.309,0v2.261a3.811,3.811,0,0,0,.786,2.512c1.833,2.261,3.928,4.521,5.5,6.782.786,8.038,1.047,13.312,1.047,16.577,0,2.009-.786,3.014-1.833,3.265s-2.095-.251-3.142-1.758c-1.833-2.512-2.619-2.009-3.928.251s-2.357,4.019-3.142,5.526C158.007,107.988,156.7,109.244,155.65,107.235Z" transform="translate(-102.172 -69.315)" fill="#cfe7e8"/><path d="M191.991,80.88c0,1.507.524,1.256.786,0a9.373,9.373,0,0,0-.524-5.275c-.786-1.758-1.047-1-1.309-.5-.524.754-.524,1,.262,1.758A13.773,13.773,0,0,1,191.991,80.88Z" transform="translate(-113.373 -70.841)" fill="#cfe7e8"/><path d="M197.976,94.988c-.524-10.549-1.833-15.07-1.571-19.089q1.571,1.13.786-.754c-.524-1.256-1.309-2.763-1.833-4.27-.524-1.256-.786-1-1.571,0s-.786,1.758-.524,2.261c1.571,12.81,2.357,19.592,2.619,23.61.262,5.526-1.047,8.791-6.809,12.559-1.833,1.256-3.928,2.512.524,1.507C193.787,109.556,198.5,106.793,197.976,94.988Z" transform="translate(-112.289 -69.376)" fill="#cfe7e8"/><path d="M181.685,123.25c-.786,1,1.047,1.507,1.309.754.524.754,0,2.009-.786,2.763-1.309,1-.524,1.256.262.5.786-.5,2.881-2.763,1.571-4.27A1.7,1.7,0,0,0,181.685,123.25Z" transform="translate(-110.662 -86.586)" fill="#cfe7e8"/></g><path d="M135.245,149.293c-3.4,0-6.547,0-9.951.251v-1c1.047-1.256.786-1.256,0-2.512-.262-.5-.524-1-1.309,0s-.786,1.256.262,2.512v1c-25.925.251-54.469,0-79.085-.251,2.619,4.27,11.522,4.019,19.64,4.019,7.332,0,29.329,0,59.183-.754v1.256c-1.047,1.256-.786,1.256,0,2.512.786,1,1.047.5,1.309,0a.763.763,0,0,0,.262-.5h3.928c0,.5.786.754,1.047.754s1.047-.251,1.047-.754h4.452a2,2,0,0,0,1.833,1c1.571,0,2.357-1.758,2.095-4.019C139.7,149.544,138.388,149.042,135.245,149.293Zm-3.666,5.023c0-.5-.786-.754-1.047-.754s-1.047.251-1.047.754h-3.928c0-.251-.262-.5-.786-1v-1.256c3.4,0,7.07-.251,10.737-.251a6.684,6.684,0,0,0-.262,2.261Z" transform="translate(-13.476 -71.932)" fill="#fff"/><path d="M168.529,149.293c-3.4,0-6.547,0-9.951.251v-1c1.047-1.256.786-1.256,0-2.512-.262-.5-.524-1-1.309,0s-.786,1.256.262,2.512v1h-.262l3.666,3.014c2.619,0,5.5-.251,8.118-.251a6.685,6.685,0,0,0-.262,2.261h-3.928c0-.5-.786-.754-1.047-.754s-.786.251-.786.5l1.833,1.507v-.251h4.452a2,2,0,0,0,1.833,1c1.571,0,2.357-1.758,2.095-4.019C172.981,149.544,171.672,149.042,168.529,149.293Z" transform="translate(-46.76 -71.932)" fill="#cfe7e8"/></g></g></g></svg>