<svg xmlns="http://www.w3.org/2000/svg" xmlns:xlink="http://www.w3.org/1999/xlink" width="162" height="107" viewBox="0 0 162 107"><defs><clipPath id="a"><rect width="162" height="107" rx="10" transform="translate(131.18 5384)" fill="#fff"/></clipPath></defs><g transform="translate(-131.18 -5384)" clip-path="url(#a)"><g transform="translate(135.979 5384)"><path d="M65.837,129.94a.768.768,0,0,0,0-1.437l-13.777-4.517a.768.768,0,0,1,0-1.437l13.772-4.5a.768.768,0,0,0,0-1.437l-13.772-4.5a.768.768,0,0,1,0-1.437l13.777-4.517a.768.768,0,0,0,0-1.437l-13.776-4.5a.768.768,0,0,1,0-1.437l13.777-4.517a.768.768,0,0,0,0-1.437l-13.776-4.5a.768.768,0,0,1,0-1.437l13.777-4.517a.769.769,0,0,0,0-1.437l-13.776-4.5a.768.768,0,0,1,0-1.437l13.777-4.517a.769.769,0,0,0,0-1.437l-13.772-4.5a.768.768,0,0,1,0-1.437l13.772-4.5a.768.768,0,0,0,0-1.437L52.061,52.661a.769.769,0,0,1,0-1.437l13.776-4.5a.768.768,0,0,0,0-1.437L52.061,40.77a.769.769,0,0,1,0-1.437l13.776-4.5a.768.768,0,0,0,0-1.437l-15.872-5.2a.64.64,0,0,0-.2-.033H11.4C5.1,28.158,0,33.634,0,40.389v82.538c0,6.755,5.1,12.231,11.4,12.231H49.761a.653.653,0,0,0,.2-.033Z" transform="translate(0 -28.158)" fill="#f5f5f5"/><path d="M144.448,28.158H53.388a.652.652,0,0,1,.2.033l15.872,5.2a.769.769,0,0,1,0,1.437l-13.776,4.5a.768.768,0,0,0,0,1.437l13.777,4.517a.768.768,0,0,1,0,1.437l-13.776,4.5a.768.768,0,0,0,0,1.437l13.777,4.517a.768.768,0,0,1,0,1.437l-13.772,4.5a.768.768,0,0,0,0,1.437l13.772,4.5a.768.768,0,0,1,0,1.437L55.688,75a.769.769,0,0,0,0,1.437l13.776,4.5a.768.768,0,0,1,0,1.437L55.688,86.894a.769.769,0,0,0,0,1.437l13.776,4.5a.768.768,0,0,1,0,1.437L55.688,98.785a.769.769,0,0,0,0,1.437l13.776,4.5a.768.768,0,0,1,0,1.437l-13.777,4.517a.769.769,0,0,0,0,1.437l13.772,4.5a.768.768,0,0,1,0,1.437l-13.772,4.5a.768.768,0,0,0,0,1.437L69.465,128.5a.768.768,0,0,1,0,1.437l-15.872,5.185a.663.663,0,0,1-.2.033h91.06c6.3,0,11.4-5.476,11.4-12.231V40.389C155.848,33.634,150.744,28.158,144.448,28.158Z" transform="translate(1.373 -28.158)" fill="#873250"/></g></g></svg>