<svg xmlns="http://www.w3.org/2000/svg" xmlns:xlink="http://www.w3.org/1999/xlink" width="174" height="160" viewBox="0 0 174 160"><defs><clipPath id="a"><rect width="174" height="107" transform="translate(1008 5157)" fill="#fff" stroke="#707070" stroke-width="1"/></clipPath></defs><g transform="translate(-747 -5384)"><text transform="translate(803 5537)" fill="#163470" font-size="25" font-family="ProximaNova-Bold, Proxima Nova" font-weight="700"><tspan x="0" y="0">U.A.E</tspan></text><g transform="translate(-261 227)" clip-path="url(#a)"><g transform="translate(1012.661 5157)"><path d="M0,143.857v20.89c0,8.662,7.171,14.776,15.937,14.776H148.742c8.765,0,15.937-6.114,15.937-14.776v-20.89Z" transform="translate(0 -72.524)" fill="#4c4b4b"/><path d="M148.742,37.857H15.937C7.171,37.857,0,43.971,0,52.633v20.89H164.679V52.633C164.679,43.971,157.507,37.857,148.742,37.857Z" transform="translate(0 -37.857)" fill="#49a948"/><rect width="164.679" height="35.667" transform="translate(0 35.667)" fill="#fff"/><path d="M192.717,179.524c8.765,0,16.468-6.114,16.468-14.776v-20.89H149.157Z" transform="translate(-44.507 -72.524)" fill="#3f3f3f"/><path d="M155.52,37.857H22.714L66.806,73.524H171.456V52.633C171.456,43.971,164.285,37.857,155.52,37.857Z" transform="translate(-6.778 -37.857)" fill="#369933"/><path d="M130.332,126.524h59.762V90.857H85.179Z" transform="translate(-25.416 -55.19)" fill="#cfe5e2"/><path d="M155.52,37.857H22.714L145.692,73.524h25.764V52.633C171.456,43.971,164.285,37.857,155.52,37.857Z" transform="translate(-6.778 -37.857)" fill="#1c8417"/><path d="M223.192,97.99V90.857H196.1Z" transform="translate(-58.514 -55.19)" fill="#bad3cf"/><path d="M164.679,174.4c0,9.171-7.171,15.031-15.937,15.031H15.937C7.171,189.429,0,182.8,0,174.143" transform="translate(0 -82.429)" fill="#232222"/><path d="M39.842,37.857h-23.9C7.171,37.857,0,43.971,0,52.633v77.7c0,8.407,7.171,14.521,15.937,14.521h23.9Z" transform="translate(0 -37.857)" fill="#e73b36"/><path d="M39.842,90.733H0V126.4H39.842Z" transform="translate(0 -55.067)" fill="#db2c2c"/><path d="M0,143.857V165c0,8.407,7.171,14.521,15.937,14.521h23.9V143.857Z" transform="translate(0 -72.524)" fill="#cc2525"/><path d="M0,174.143c0,10.19,7.171,15.286,15.937,15.286h23.9V174.143Z" transform="translate(0 -82.429)" fill="#b70808"/><path d="M46.619,37.857h-23.9l23.9,19.362Z" transform="translate(-6.778 -37.857)" fill="#cc2525"/><path d="M46.619,37.857h-23.9l23.9,6.369Z" transform="translate(-6.778 -37.857)" fill="#b70808"/></g></g></g></svg>